<svg id="Слой_1" data-name="Слой 1" xmlns="http://www.w3.org/2000/svg" viewBox="0 0 91.85 79.33">
  <title>garantiya-na-tovar</title>
  <g>
    <polygon points="26.71 38.41 19.63 35.15 17.71 39.32 24.8 42.58 24.8 42.58 28.96 44.49 36.79 27.47 32.63 25.56 26.71 38.41"/>
    <path d="M-238.79-98.6a1,1,0,0,0,.35-0.06l4.57-1.69a1,1,0,0,0,.59-1.28,1,1,0,0,0-1.28-.59l-4.58,1.69a1,1,0,0,0-.6,1.28A1,1,0,0,0-238.79-98.6Z" transform="translate(255.03 110.58)"/>
    <path d="M-214.48-49.71a3.06,3.06,0,0,0-3.93-1.81,3.06,3.06,0,0,0-1.81,3.93,3.06,3.06,0,0,0,3.93,1.81h0A3.07,3.07,0,0,0-214.48-49.71Zm-2.5,2.06a1.06,1.06,0,0,1-1.36-.63,1.06,1.06,0,0,1,.63-1.36,1.06,1.06,0,0,1,1.35.62,1.06,1.06,0,0,1-.62,1.37h0Z" transform="translate(255.03 110.58)"/>
    <path d="M-173.79-76.4l-10.51-6.54a1,1,0,0,0-.62-0.15L-197.24-82a1,1,0,0,0-.89.76l-1.3,5.48A18.56,18.56,0,0,0-196-59.87l4.08,4.6a1.1,1.1,0,0,0,.82.37,1.13,1.13,0,0,0,.4-0.07l5.77-2.28a18.54,18.54,0,0,0,10.22-12.62l1.31-5.47A1,1,0,0,0-173.79-76.4Zm-2.81,6.09a16.53,16.53,0,0,1-9.07,11.17l-5.13,2-3.62-4.08a16.55,16.55,0,0,1-3.07-14.11l1.14-4.77,11.27-1,9.61,6Z" transform="translate(255.03 110.58)"/>
    <polygon points="63.48 38.22 61.32 39.55 63.57 43.21 63.57 43.21 64.9 45.36 73.7 39.95 72.37 37.8 65.73 41.89 63.48 38.22"/>
    <path d="M-163.93-94.22a5.08,5.08,0,0,0-3.21-2.3l-27-6.45a5.08,5.08,0,0,0-6.14,3.74v0.05l-0.85,3.77h0l-5.36,22.19-11.29-30.65h0l-1.35-3.47a4.93,4.93,0,0,0-2.66-2.79,5.08,5.08,0,0,0-3.91-.11l-26,9.65a5.14,5.14,0,0,0-3,6.59l19.57,53.25a5.11,5.11,0,0,0,6.57,3l15-5.53a5.07,5.07,0,0,0,3.89,5.44l27,6.45a5.11,5.11,0,0,0,6.17-3.77v0l13.24-55.17A5.09,5.09,0,0,0-163.93-94.22ZM-176.86-42.3l-33.07-7.9L-199.47-94l33.07,7.9h0Zm-33.44-15-25.3,9.43h0L-251.21-90.1l31.88-11.77,12,32.35Zm-40.77-41.39,26-9.63a3.12,3.12,0,0,1,4,1.84l1,2.7L-251.91-92h0l-1-2.7A3.12,3.12,0,0,1-251.07-98.69Zm21.86,59.09a3.12,3.12,0,0,1-4-1.84L-234.9-46l24-8.9-1.24,5.22h0l-1,4.14Zm50.75,4a3.12,3.12,0,0,1-3.76,2.31h0l-27-6.45a3.12,3.12,0,0,1-2.31-3.76h0l1.14-4.75,33.07,7.9Zm13.2-55.22-0.67,2.8h0L-199-95.87l0.67-2.8a3.12,3.12,0,0,1,3-2.39,3.13,3.13,0,0,1,.73.09l27,6.45a3.12,3.12,0,0,1,2.31,3.76h0Z" transform="translate(255.03 110.58)"/>
    <path d="M-179.26-94.87L-184-96a1,1,0,0,0-1.21.75,1,1,0,0,0,.75,1.2l4.74,1.13h0.23a1,1,0,0,0,1.11-.88,1,1,0,0,0-.88-1.12v0Z" transform="translate(255.03 110.58)"/>
    <path d="M-194.08-43.78a3.06,3.06,0,0,0-3.68,2.27,3.06,3.06,0,0,0,2.27,3.68,3.06,3.06,0,0,0,3.68-2.26A3,3,0,0,0-194-43.75Zm0.32,3.23a1.07,1.07,0,0,1-1.31.75,1.07,1.07,0,0,1-.75-1.31,1.07,1.07,0,0,1,1.29-.76,1.06,1.06,0,0,1,.8,1.27v0h0Z" transform="translate(255.03 110.58)"/>
  </g>
</svg>
