<svg id="Слой_1" data-name="Слой 1" xmlns="http://www.w3.org/2000/svg" viewBox="0 0 92.3 119.9"><defs><style>.cls-1,.cls-2{fill:#39c;}.cls-2{stroke:#39c;stroke-miterlimit:10;stroke-width:8px;}</style></defs><title>logoGuarantee_mobilemaster.com.ua</title><g id="Слой_4" data-name="Слой 4"><path class="cls-1" d="M87.05,0.6a10.35,10.35,0,0,1,5,2.8,9.42,9.42,0,0,1,2.5,6.8V97.4a9.2,9.2,0,0,1-9.1,9.1h-23a4.76,4.76,0,0,1-4.9-4.4c-0.2-2.4,1.6-3.4,4.1-3.9a11.08,11.08,0,0,1,1.9-.2h21.1c1.2,0,1.5-1.4,1.5-2.5V11.4c0-1.2-.4-2.5-1.5-2.5H12.35c-1.2,0-1.5,1.4-1.5,2.6V95.6c0,1.1.3,2.5,1.4,2.5,2-.1,5.1-0.1,7.1,0,1.1,0,1.4-1.4,1.4-2.4-0.1-2.4,0-4.8,0-7.2,0-1,.3-1.2,1.2-0.8a3.11,3.11,0,0,1,1.6,1.4,8.55,8.55,0,0,0,9.6,3.7,5.45,5.45,0,0,1,3.1,0,8.47,8.47,0,0,0,9.6-3.8,2.09,2.09,0,0,1,.4-0.6,1.94,1.94,0,0,1,2-.9c0.6,0.1.3,1,.3,1.6v29.7a7.57,7.57,0,0,1-.1,1.5h-0.2c-4.3-2.9-8.5-5.7-12.8-8.6a1.2,1.2,0,0,0-1.5-.1c-4.3,2.9-8.6,5.8-12.9,8.6h-0.5V107.8c0-1-.3-1.4-1.3-1.4-2.6.1-5.2,0-7.8,0a9.31,9.31,0,0,1-9.2-9.2v-87a9.82,9.82,0,0,1,2.5-6.9A11.34,11.34,0,0,1,9.85.4C35.65,0.6,61.35.6,87.05,0.6Z" transform="translate(-2.25 -0.4)"/><path class="cls-1" d="M38.35,88.7a4.49,4.49,0,0,1-2.7-1,1.52,1.52,0,0,0-2,0c-2.9,2.1-6.1.8-7-2.6a1.4,1.4,0,0,0-1.4-1.2,4.38,4.38,0,0,1-3.8-6.7,1,1,0,0,0-.3-1.5c-2.8-2.8-2.2-6,1.4-7.6a1.08,1.08,0,0,0,.7-1.4c-0.5-3.7,2.4-6.1,6-4.9a1,1,0,0,0,1.4-.6c2-3.1,5.8-3.2,7.7-.1a1.2,1.2,0,0,0,1.6.6,4.29,4.29,0,0,1,5.8,4.9,1.28,1.28,0,0,0,.9,1.6,4.35,4.35,0,0,1,1.4,7.4,1.45,1.45,0,0,0-.4,2,4.25,4.25,0,0,1-3.5,6.4,1.69,1.69,0,0,0-1.8,1.6C42.25,87.4,40.35,88.8,38.35,88.7Zm-3.6-7.3a7.2,7.2,0,1,0-7.3-7.2A7.07,7.07,0,0,0,34.75,81.4Z" transform="translate(-2.25 -0.4)"/><line class="cls-2" x1="15.1" y1="22" x2="76.9" y2="22"/><line class="cls-2" x1="15.1" y1="35.9" x2="76.9" y2="35.9"/><line class="cls-2" x1="15.1" y1="49.3" x2="58.8" y2="49.3"/></g></svg>